<?xml version="1.0" encoding="UTF-8"?>
<svg xmlns="http://www.w3.org/2000/svg" viewBox="0 0 24 24" width="24" height="24">
  <path fill="#4285f4" d="M21.5,4h-19C1.12,4,0,5.12,0,6.5v11C0,18.88,1.12,20,2.5,20h19c1.38,0,2.5-1.12,2.5-2.5v-11C24,5.12,22.88,4,21.5,4z M21.5,6.5v1.79c-0.59,0.34-1,0.98-1,1.72v0.5c0,0.83,0.67,1.5,1.5,1.5v3.28L16.89,11L22,7.49V6.5H21.5z M2.5,6.5H3v0.99L8.11,11L3,15.28V12c0.83,0-1.5-0.67-1.5-1.5V10c0-0.74-0.41-1.38-1-1.72V6.5H2.5z M12,12.75L3.86,18h16.29L12,12.75z M12,9.75L20.14,6H3.86L12,9.75z"/>
  <path fill="#4285f4" d="M8,13h8c0.55,0,1-0.45,1-1s-0.45-1-1-1H8c-0.55,0-1,0.45-1,1S7.45,13,8,13z"/>
  <path fill="#4285f4" d="M8,15h5c0.55,0,1-0.45,1-1s-0.45-1-1-1H8c-0.55,0-1,0.45-1,1S7.45,15,8,15z"/>
</svg>
