<?xml version="1.0" encoding="UTF-8"?>
<svg width="24px" height="24px" viewBox="0 0 24 24" version="1.1" xmlns="http://www.w3.org/2000/svg">
  <title>Generate Icon</title>
  <g stroke="none" stroke-width="1" fill="none" fill-rule="evenodd">
    <path d="M19,3 L5,3 C3.9,3 3,3.9 3,5 L3,19 C3,20.1 3.9,21 5,21 L19,21 C20.1,21 21,20.1 21,19 L21,5 C21,3.9 20.1,3 19,3 Z M19,19 L5,19 L5,15 L19,15 L19,19 Z M19,13 L5,13 L5,9 L19,9 L19,13 Z M19,7 L5,7 L5,5 L19,5 L19,7 Z" fill="#4285F4" fill-rule="nonzero"></path>
    <path d="M7,11 L17,11 L17,10 L7,10 L7,11 Z M7,6 L12,6 L12,5 L7,5 L7,6 Z M7,18 L14,18 L14,17 L7,17 L7,18 Z" fill="#4285F4" fill-rule="nonzero"></path>
  </g>
</svg>
