<?xml version="1.0" encoding="UTF-8"?>
<svg width="96px" height="96px" viewBox="0 0 96 96" version="1.1" xmlns="http://www.w3.org/2000/svg">
  <title>SmartReply AI Icon</title>
  <defs>
    <linearGradient x1="0%" y1="0%" x2="100%" y2="100%" id="mainGradient">
      <stop stop-color="#4285F4" offset="0%"></stop>
      <stop stop-color="#34A853" offset="100%"></stop>
    </linearGradient>
    <filter id="shadow" x="-20%" y="-20%" width="140%" height="140%">
      <feGaussianBlur in="SourceAlpha" stdDeviation="3"></feGaussianBlur>
      <feOffset dx="0" dy="2" result="offsetblur"></feOffset>
      <feComponentTransfer>
        <feFuncA type="linear" slope="0.3"></feFuncA>
      </feComponentTransfer>
      <feMerge>
        <feMergeNode></feMergeNode>
        <feMergeNode in="SourceGraphic"></feMergeNode>
      </feMerge>
    </filter>
  </defs>
  <g stroke="none" stroke-width="1" fill="none" fill-rule="evenodd">
    <!-- Background Circle -->
    <circle fill="url(#mainGradient)" cx="48" cy="48" r="44" filter="url(#shadow)"></circle>
    
    <!-- Envelope Base -->
    <path d="M24,36 L72,36 C74.209,36 76,37.791 76,40 L76,64 C76,66.209 74.209,68 72,68 L24,68 C21.791,68 20,66.209 20,64 L20,40 C20,37.791 21.791,36 24,36 Z" fill="#FFFFFF"></path>
    
    <!-- Envelope Flap -->
    <path d="M20,40 L48,52 L76,40" stroke="#4285F4" stroke-width="2" stroke-linecap="round" stroke-linejoin="round"></path>
    
    <!-- AI Brain Symbol -->
    <g transform="translate(40, 48)" fill="#4285F4">
      <circle cx="8" cy="8" r="3"></circle>
      <circle cx="0" cy="0" r="2"></circle>
      <circle cx="16" cy="0" r="2"></circle>
      <circle cx="0" cy="16" r="2"></circle>
      <circle cx="16" cy="16" r="2"></circle>
      <path d="M8,5 L8,0 M8,11 L8,16 M5,8 L0,8 M11,8 L16,8 M3,3 L0,0 M13,3 L16,0 M3,13 L0,16 M13,13 L16,16" stroke="#4285F4" stroke-width="1.5" stroke-linecap="round"></path>
    </g>
  </g>
</svg>
