<?xml version="1.0" encoding="UTF-8" standalone="no"?>
<svg xmlns="http://www.w3.org/2000/svg" width="128" height="128" viewBox="0 0 128 128">
  <!-- Gradient Background -->
  <defs>
    <linearGradient id="bgGradient" x1="0%" y1="0%" x2="100%" y2="100%">
      <stop offset="0%" style="stop-color:#1a237e;stop-opacity:1" />
      <stop offset="100%" style="stop-color:#0d47a1;stop-opacity:1" />
    </linearGradient>
    
    <!-- Sparkle gradient -->
    <linearGradient id="sparkleGradient" x1="0%" y1="0%" x2="100%" y2="100%">
      <stop offset="0%" style="stop-color:#ffffff;stop-opacity:1" />
      <stop offset="100%" style="stop-color:#e3f2fd;stop-opacity:1" />
    </linearGradient>
  </defs>
  
  <!-- Background (transparent) -->
  <rect x="0" y="0" width="128" height="128" fill="none" />
  
  <!-- Large Sparkle Center -->
  <path d="M64 24 L70 50 L96 64 L70 78 L64 104 L58 78 L32 64 L58 50 Z" fill="#2196f3" />
  
  <!-- Medium Sparkle Top Right -->
  <path d="M96 32 L100 48 L116 52 L100 56 L96 72 L92 56 L76 52 L92 48 Z" fill="#1565c0" />
  
  <!-- Small Sparkle Bottom Left -->
  <path d="M32 96 L34 84 L46 82 L34 80 L32 68 L30 80 L18 82 L30 84 Z" fill="#0d47a1" />
  
  <!-- Tiny Sparkle Top Left -->
  <path d="M24 36 L26 28 L34 30 L26 32 L24 40 L22 32 L14 30 L22 28 Z" fill="#1a237e" opacity="0.7" />
  
  <!-- Tiny Sparkle Bottom Right -->
  <path d="M104 92 L106 84 L114 86 L106 88 L104 96 L102 88 L94 86 L102 84 Z" fill="#1a237e" opacity="0.7" />
  
  <!-- AI Text -->
  <text x="64" y="70" font-family="Arial, sans-serif" font-size="24" font-weight="bold" text-anchor="middle" fill="white">AI</text>
</svg>
