<?xml version="1.0" encoding="UTF-8"?>
<svg width="24px" height="24px" viewBox="0 0 24 24" version="1.1" xmlns="http://www.w3.org/2000/svg">
  <title>OpenAI Icon</title>
  <g stroke="none" stroke-width="1" fill="none" fill-rule="evenodd">
    <path d="M22.2819,9.8211 C22.5699,8.5631 22.4259,7.2469 21.8659,6.0871 C21.0499,4.3501 19.3079,3.1991 17.3459,3.0171 C16.4019,2.9271 15.4519,3.0751 14.5959,3.4451 C13.9559,2.5171 13.0659,1.7951 12.0219,1.3691 C10.1999,0.6021 8.1299,0.7561 6.4399,1.7711 C4.7499,2.7861 3.6959,4.5681 3.5699,6.5301 C3.5159,7.4741 3.6639,8.4181 3.9999,9.2931 C3.1239,10.0091 2.4569,10.9531 2.0849,12.0331 C1.4979,13.7701 1.8159,15.6871 2.9159,17.1551 C4.0159,18.6231 5.7799,19.4661 7.6559,19.4661 C8.2159,19.4661 8.7759,19.3941 9.3089,19.2491 C10.0519,19.9161 10.9419,20.3961 11.9319,20.6301 C12.5459,20.7751 13.1599,20.8471 13.7739,20.8471 C15.2959,20.8471 16.7639,20.3421 17.9719,19.4121 C19.1799,18.4821 20.0159,17.1371 20.3339,15.6231 C20.5139,14.6791 20.4619,13.7161 20.1979,12.8051 C21.1339,11.9801 21.8279,10.9261 22.2819,9.8211 Z M17.9719,17.9981 C16.5579,19.1521 14.6819,19.4661 12.9919,18.8791 C12.2489,18.6231 11.5859,18.1721 11.0799,17.5851 L11.1859,17.5131 L15.6399,14.9621 C15.9039,14.8171 16.0839,14.5341 16.0839,14.2511 L16.0839,8.5091 L18.0119,9.6631 C18.0389,9.6901 18.0659,9.7171 18.0659,9.7711 L18.0659,14.6251 C18.0659,16.1471 17.2499,17.5581 15.9039,18.3741 C16.6469,18.3201 17.3629,18.1211 17.9719,17.7491 L17.9719,17.9981 Z M4.6779,16.5731 C3.7879,15.4731 3.5429,13.9511 4.0489,12.6121 C4.3129,11.8501 4.7649,11.1881 5.3519,10.6821 L5.4579,10.7541 L9.9119,13.3051 C10.1759,13.4501 10.5209,13.4501 10.7849,13.3051 L15.8639,10.3651 L15.8639,12.6661 C15.8639,12.7201 15.8369,12.7471 15.8369,12.7741 L11.3289,15.3791 C9.9929,16.1411 8.2489,16.0511 7.0139,15.1611 C7.6819,15.4731 8.4249,15.5901 9.1679,15.5361 L4.6779,16.5731 Z M3.9999,7.8851 C4.1259,6.3631 4.9959,4.9521 6.3419,4.1361 C7.6879,3.3201 9.3089,3.2301 10.7309,3.8171 C11.4739,4.1361 12.1099,4.6151 12.6159,5.2021 L12.5099,5.2741 L8.0559,7.8251 C7.7919,7.9701 7.6119,8.2531 7.6119,8.5361 L7.6119,14.2781 L5.6839,13.1241 C5.6569,13.0971 5.6299,13.0701 5.6299,13.0161 L5.6299,8.1621 C5.6299,7.9701 5.6569,7.7781 5.6839,7.5861 L3.9999,7.8851 Z M17.1019,5.6801 C17.9179,5.8721 18.6879,6.3781 19.2479,7.0941 C19.8079,7.8101 20.1259,8.6671 20.1799,9.5571 C20.1799,10.0361 20.0809,10.5151 19.9279,10.9671 L19.8219,10.8951 L15.3679,8.3441 C15.1039,8.1991 14.7589,8.1991 14.4949,8.3441 L9.4159,11.2841 L9.4159,8.9831 C9.4159,8.9291 9.4429,8.9021 9.4429,8.8751 L13.9509,6.2701 C14.9949,5.6801 16.2299,5.4881 17.1019,5.6801 Z M11.1859,10.1931 L13.7739,8.7251 L16.3619,10.1931 L16.3619,13.1241 L13.7739,14.5921 L11.1859,13.1241 L11.1859,10.1931 Z" fill="#10A37F" fill-rule="nonzero"></path>
  </g>
</svg>
