<?xml version="1.0" encoding="UTF-8"?>
<svg width="24px" height="24px" viewBox="0 0 24 24" version="1.1" xmlns="http://www.w3.org/2000/svg">
  <title>Robot Icon</title>
  <g stroke="none" stroke-width="1" fill="none" fill-rule="evenodd">
    <path d="M20,9 L20,15 C20,16.1 19.1,17 18,17 L17,17 L17,19 C17,20.1 16.1,21 15,21 L9,21 C7.9,21 7,20.1 7,19 L7,17 L6,17 C4.9,17 4,16.1 4,15 L4,9 C4,7.9 4.9,7 6,7 L7,7 L7,5 C7,3.9 7.9,3 9,3 L15,3 C16.1,3 17,3.9 17,5 L17,7 L18,7 C19.1,7 20,7.9 20,9 Z M15,5 L9,5 L9,7 L15,7 L15,5 Z M15,19 L15,13 L9,13 L9,19 L15,19 Z M18,15 L18,9 L6,9 L6,15 L18,15 Z" fill="#4285F4" fill-rule="nonzero"></path>
    <circle cx="8" cy="12" r="1" fill="#4285F4"></circle>
    <circle cx="16" cy="12" r="1" fill="#4285F4"></circle>
  </g>
</svg>
