<?xml version="1.0" encoding="UTF-8"?>
<svg width="24px" height="24px" viewBox="0 0 24 24" version="1.1" xmlns="http://www.w3.org/2000/svg">
  <title>Signature Icon</title>
  <g stroke="none" stroke-width="1" fill="none" fill-rule="evenodd">
    <path d="M22,3 L2,3 L2,21 L22,21 L22,3 Z M20,19 L4,19 L4,5 L20,5 L20,19 Z" fill="#4285F4" fill-rule="nonzero"></path>
    <path d="M8,11 C8,9.34 9.34,8 11,8 C12.66,8 14,9.34 14,11 L16,11 C16,8.24 13.76,6 11,6 C8.24,6 6,8.24 6,11 L8,11 Z M17,13 L7,13 L7,15 L17,15 L17,13 Z" fill="#4285F4" fill-rule="nonzero"></path>
  </g>
</svg>
