<?xml version="1.0" encoding="UTF-8"?>
<svg width="24px" height="24px" viewBox="0 0 24 24" version="1.1" xmlns="http://www.w3.org/2000/svg">
  <title>Smart Star Icon</title>
  <defs>
    <linearGradient x1="0%" y1="0%" x2="100%" y2="100%" id="starGradient">
      <stop stop-color="#4285F4" offset="0%"></stop>
      <stop stop-color="#34A853" offset="100%"></stop>
    </linearGradient>
  </defs>
  <g stroke="none" stroke-width="1" fill="none" fill-rule="evenodd">
    <path d="M12,17.27L18.18,21L16.54,13.97L22,9.24L14.81,8.63L12,2L9.19,8.63L2,9.24L7.46,13.97L5.82,21L12,17.27Z" fill="url(#starGradient)" fill-rule="nonzero"></path>
    <!-- Brain pattern inside star -->
    <g transform="translate(8, 8)" fill="#FFFFFF" opacity="0.7">
      <circle cx="4" cy="4" r="1.5"></circle>
      <circle cx="1" cy="1" r="0.8"></circle>
      <circle cx="7" cy="1" r="0.8"></circle>
      <circle cx="1" cy="7" r="0.8"></circle>
      <circle cx="7" cy="7" r="0.8"></circle>
      <path d="M4,2.5 L4,1 M4,5.5 L4,7 M2.5,4 L1,4 M5.5,4 L7,4" stroke="#FFFFFF" stroke-width="0.7" stroke-linecap="round"></path>
    </g>
  </g>
</svg>
