<?xml version="1.0" encoding="UTF-8"?>
<svg width="24px" height="24px" viewBox="0 0 24 24" version="1.1" xmlns="http://www.w3.org/2000/svg">
  <title>Professional Style</title>
  <g stroke="none" stroke-width="1" fill="none" fill-rule="evenodd">
    <path d="M20,6 L4,6 C2.9,6 2,6.9 2,8 L2,16 C2,17.1 2.9,18 4,18 L20,18 C21.1,18 22,17.1 22,16 L22,8 C22,6.9 21.1,6 20,6 Z M20,16 L4,16 L4,8 L20,8 L20,16 Z M11,11 L13,11 L13,13 L11,13 L11,11 Z M7,11 L9,11 L9,13 L7,13 L7,11 Z M15,11 L17,11 L17,13 L15,13 L15,11 Z" fill="#4285F4" fill-rule="nonzero"></path>
  </g>
</svg>
