<?xml version="1.0" encoding="UTF-8"?>
<svg width="24px" height="24px" viewBox="0 0 24 24" version="1.1" xmlns="http://www.w3.org/2000/svg">
  <title>Template Icon</title>
  <g stroke="none" stroke-width="1" fill="none" fill-rule="evenodd">
    <path d="M19,3 L5,3 C3.9,3 3,3.9 3,5 L3,19 C3,20.1 3.9,21 5,21 L19,21 C20.1,21 21,20.1 21,19 L21,5 C21,3.9 20.1,3 19,3 Z M19,19 L5,19 L5,5 L19,5 L19,19 Z M17,12 L7,12 L7,10 L17,10 L17,12 Z M14,15 L7,15 L7,14 L14,14 L14,15 Z M10,8 L7,8 L7,7 L10,7 L10,8 Z" fill="#FFFFFF" fill-rule="nonzero"></path>
  </g>
</svg>
